<svg xmlns="http://www.w3.org/2000/svg" width="556" height="449" viewBox="0 0 556 449">
<g>
<path d="M 0.50 336.00 L 0.50 449.00 L 9.93 449.00 L 19.36 449.00 L 15.13 445.38 C8.68,439.86 5.02,432.75 5.01,425.72 C4.99,414.82 5.66,413.90 39.49,378.10 C52.70,364.14 71.82,343.85 82.00,333.02 C92.18,322.19 110.44,302.80 122.58,289.92 C134.72,277.04 149.72,260.99 155.90,254.25 C162.18,247.40 168.20,241.74 169.55,241.40 C172.60,240.63 176.35,243.01 181.57,249.00 C195.71,265.24 239.67,313.68 241.04,314.53 C241.57,314.85 242.00,316.96 242.00,319.22 C242.00,323.11 241.38,323.95 230.20,335.41 C223.70,342.06 215.69,350.42 212.38,354.00 C209.07,357.58 201.22,365.91 194.93,372.53 C188.65,379.15 171.63,397.24 157.12,412.74 C139.98,431.04 128.63,442.33 124.71,444.95 L 118.69 449.00 L 0.00 449.00 L 0.00 0.00 L 1.00 0.00 L 0.89 56.25 C0.61,207.68 0.71,219.02 2.41,220.90 C3.69,222.31 4.00,225.14 4.00,235.25 C4.00,247.27 3.56,251.00 2.14,251.00 C1.79,251.00 1.65,244.70 1.83,237.00 C2.00,229.30 1.78,223.00 1.33,223.00 C0.87,223.00 0.50,273.85 0.50,336.00 ZM 16.01 0.00 L 113.66 0.00 L 118.13 2.96 C123.33,6.41 130.01,13.32 150.00,35.94 C157.98,44.96 168.55,56.88 173.50,62.42 C178.45,67.97 185.43,75.88 189.00,80.00 C192.57,84.12 202.69,95.58 211.50,105.45 C227.47,123.37 244.21,142.27 263.34,164.00 C268.91,170.32 275.55,177.75 278.10,180.50 C280.65,183.25 284.25,187.30 286.09,189.50 C287.94,191.70 292.86,197.32 297.04,202.00 C313.83,220.78 320.38,228.35 319.23,227.64 C318.06,226.92 306.83,214.45 288.50,193.54 C279.70,183.50 270.13,172.83 258.92,160.59 C255.85,157.24 250.27,150.90 246.51,146.50 C242.75,142.10 237.68,136.50 235.24,134.05 C232.80,131.61 229.69,128.15 228.34,126.38 C226.98,124.60 223.43,121.26 220.45,118.96 C217.46,116.66 215.23,114.43 215.49,114.02 C216.15,112.95 209.20,106.00 207.47,106.00 C206.68,106.00 205.75,104.86 205.40,103.48 C204.75,100.88 201.53,98.00 199.29,98.00 C197.57,98.00 198.25,103.91 200.10,105.08 C200.87,105.57 202.51,105.98 203.75,105.98 C206.39,106.00 206.63,107.23 204.43,109.43 C202.64,111.22 200.41,111.48 199.50,110.00 C199.16,109.45 197.98,109.00 196.88,109.00 C195.78,109.00 195.16,109.45 195.50,110.01 C195.85,110.56 195.41,111.73 194.53,112.61 C192.22,114.92 194.09,116.64 199.57,117.26 C202.37,117.57 204.65,118.48 205.52,119.63 C207.08,121.70 207.41,123.10 206.25,122.81 C204.46,122.37 198.33,125.90 198.33,127.38 C198.33,128.27 198.63,129.00 198.98,129.00 C199.34,129.00 199.61,137.21 199.57,147.25 L 199.50 165.50 L 202.27 169.12 C205.34,173.14 205.09,175.63 201.49,177.00 C199.97,177.58 199.09,178.93 198.75,181.18 C198.47,183.01 198.64,184.65 199.12,184.83 C199.61,185.02 200.00,186.28 200.00,187.63 C200.00,189.46 200.83,190.45 203.24,191.46 C205.68,192.49 206.69,192.54 207.31,191.66 C207.81,190.96 207.94,191.29 207.64,192.50 C207.37,193.60 206.84,196.07 206.46,198.00 C206.09,199.93 205.26,202.18 204.64,203.00 C204.01,203.82 202.93,205.51 202.24,206.75 C201.19,208.64 201.22,209.00 202.46,209.00 C203.27,209.00 203.74,209.56 203.50,210.25 C203.26,210.94 202.87,213.41 202.62,215.75 C202.22,219.57 202.41,220.07 204.54,220.60 C208.30,221.54 209.66,223.77 207.69,225.74 C205.88,227.55 204.99,227.14 204.59,224.34 C204.24,221.95 199.07,221.13 198.85,223.43 C198.77,224.30 198.65,225.56 198.60,226.24 C198.54,226.92 199.85,227.71 201.50,228.00 C203.15,228.29 204.52,228.97 204.54,229.51 C204.55,230.05 205.12,231.49 205.79,232.69 C207.03,234.92 205.95,236.71 204.07,235.54 C203.55,235.22 203.31,236.32 203.53,238.06 C203.96,241.43 207.44,245.83 215.67,253.40 C218.60,256.09 221.00,259.12 221.00,260.13 C221.00,261.14 223.85,265.01 227.34,268.73 C230.82,272.45 234.54,276.60 235.59,277.95 C236.64,279.30 238.85,281.84 240.50,283.58 C242.15,285.33 244.61,288.27 245.96,290.13 C247.32,291.98 249.40,294.62 250.59,296.00 C251.78,297.37 256.48,302.77 261.02,308.00 C265.57,313.23 271.59,320.15 274.39,323.39 C280.39,330.30 285.07,335.65 294.42,346.25 C298.17,350.51 301.01,354.00 300.72,354.00 C299.86,354.00 269.11,319.25 237.50,282.56 C230.90,274.90 217.49,259.38 207.70,248.07 C197.92,236.76 181.04,217.19 170.20,204.59 C159.37,191.99 145.32,175.75 139.00,168.51 C132.68,161.26 120.53,147.30 112.00,137.48 C103.47,127.66 91.31,113.75 84.98,106.56 C74.67,94.87 58.87,76.66 35.63,49.65 C31.30,44.62 24.62,36.90 20.78,32.50 C12.38,22.85 10.00,18.49 10.00,12.69 C10.00,9.40 10.75,7.26 13.01,4.15 L 16.01 0.00 ZM 204.98 353.43 C205.51,354.85 206.47,356.00 207.12,356.00 C208.49,356.00 210.69,353.42 212.01,350.25 C212.53,349.00 213.82,348.00 214.91,348.00 C215.98,348.00 217.75,346.76 218.83,345.25 C219.91,343.74 225.11,338.23 230.38,333.00 C239.29,324.16 239.96,323.22 239.97,319.50 C239.98,315.81 239.30,314.80 231.16,306.50 C226.31,301.55 221.53,296.26 220.54,294.73 C219.56,293.21 218.02,292.09 217.13,292.23 C216.01,292.42 215.40,291.63 215.18,289.75 C214.83,286.66 214.66,286.58 211.91,288.05 C210.83,288.63 210.25,289.59 210.62,290.19 C211.08,290.94 210.16,291.07 207.64,290.59 C203.13,289.75 203.04,290.82 207.25,294.96 L 210.50 298.15 L 208.41 299.86 C207.26,300.79 206.45,302.45 206.61,303.53 C207.15,307.12 207.06,315.38 206.38,324.90 C205.92,331.33 206.04,334.10 206.75,333.66 C208.50,332.57 209.15,336.18 207.52,337.97 C204.45,341.37 205.97,344.79 210.25,344.12 C210.66,344.05 211.00,344.88 211.00,345.95 C211.00,348.28 208.44,349.93 205.86,349.25 C203.77,348.71 203.56,349.70 204.98,353.43 ZM 200.24 287.75 C201.62,289.22 202.11,289.81 202.67,289.89 C203.02,289.94 203.40,289.79 204.05,289.54 C204.16,289.49 204.29,289.44 204.42,289.39 C207.18,288.33 206.29,283.68 202.66,280.15 C200.04,277.62 199.09,277.20 198.29,278.21 C196.79,280.11 197.82,285.17 200.24,287.75 ZM 190.56 226.09 C191.19,227.12 194.35,227.32 195.27,226.39 C196.12,225.55 193.77,222.00 192.37,222.00 C191.00,222.00 189.76,224.80 190.56,226.09 ZM 199.75 234.21 C201.74,234.60 202.70,232.30 201.18,230.78 C200.63,230.23 199.69,230.08 199.09,230.45 C197.40,231.49 197.81,233.81 199.75,234.21 ZM 187.25 87.34 C189.43,88.22 190.00,88.04 190.00,86.50 C190.00,85.68 189.81,85.00 189.58,85.00 C189.35,85.00 188.45,84.73 187.58,84.39 C186.57,84.00 186.00,84.33 186.00,85.31 C186.00,86.15 186.56,87.06 187.25,87.34 ZM 195.54 96.07 C195.86,96.58 196.82,97.00 197.68,97.00 C198.95,97.00 199.01,96.72 198.01,95.51 C196.72,93.96 194.54,94.45 195.54,96.07 ZM 211.00 188.94 C211.00,190.07 210.55,191.00 210.00,191.00 C209.45,191.00 209.00,190.35 209.00,189.56 C209.00,188.77 209.45,187.84 210.00,187.50 C210.55,187.16 211.00,187.81 211.00,188.94 Z" fill="rgb(154,43,113)"/>
<path d="M 390.00 447.44 C390.00,448.84 398.58,449.00 473.00,449.00 L 252.90 449.00 C326.72,449.00 386.90,448.64 386.62,448.20 C386.35,447.76 383.96,445.89 381.32,444.05 C375.82,440.23 348.17,409.43 312.15,367.02 C309.59,364.01 303.28,357.03 298.13,351.52 C292.98,346.01 286.23,338.58 283.13,335.01 C281.26,332.85 277.30,328.30 272.75,323.09 C288.73,341.27 300.20,354.00 300.72,354.00 C301.01,354.00 298.17,350.51 294.42,346.25 C285.07,335.65 280.39,330.30 274.39,323.39 C271.59,320.15 265.57,313.23 261.02,308.00 C256.48,302.77 251.78,297.37 250.59,296.00 C249.40,294.62 247.32,291.98 245.96,290.13 C244.61,288.27 242.15,285.33 240.50,283.58 C238.85,281.84 236.64,279.30 235.59,277.95 C234.54,276.60 230.82,272.45 227.34,268.73 C223.85,265.01 221.00,261.14 221.00,260.13 C221.00,259.12 218.60,256.09 215.67,253.40 C207.44,245.83 203.96,241.43 203.53,238.06 C203.31,236.32 203.55,235.22 204.07,235.54 C205.95,236.71 207.03,234.92 205.79,232.69 C205.12,231.49 204.55,230.05 204.54,229.51 C204.52,228.97 203.15,228.29 201.50,228.00 C199.85,227.71 198.54,226.92 198.60,226.24 C198.65,225.56 198.77,224.30 198.85,223.43 C199.07,221.13 204.24,221.95 204.59,224.34 C204.99,227.14 205.88,227.55 207.69,225.74 C209.66,223.77 208.30,221.54 204.54,220.60 C202.41,220.07 202.22,219.57 202.62,215.75 C202.87,213.41 203.26,210.94 203.50,210.25 C203.74,209.56 203.27,209.00 202.46,209.00 C201.22,209.00 201.19,208.64 202.24,206.75 C202.93,205.51 204.01,203.82 204.64,203.00 C205.26,202.18 206.09,199.93 206.46,198.00 C206.84,196.07 207.37,193.60 207.64,192.50 C207.94,191.29 207.81,190.96 207.31,191.66 C206.69,192.54 205.68,192.49 203.24,191.46 C200.83,190.45 200.00,189.46 200.00,187.63 C200.00,186.28 199.61,185.02 199.12,184.83 C198.64,184.65 198.47,183.01 198.75,181.18 C199.09,178.93 199.97,177.58 201.49,177.00 C205.09,175.63 205.34,173.14 202.27,169.12 L 199.50 165.50 L 199.57 147.25 C199.61,137.21 199.34,129.00 198.98,129.00 C198.63,129.00 198.33,128.27 198.33,127.38 C198.33,125.90 204.46,122.37 206.25,122.81 C207.41,123.10 207.08,121.70 205.52,119.63 C204.65,118.48 202.37,117.57 199.57,117.26 C194.09,116.64 192.22,114.92 194.53,112.61 C195.41,111.73 195.85,110.56 195.50,110.01 C195.16,109.45 195.78,109.00 196.88,109.00 C197.98,109.00 199.16,109.45 199.50,110.00 C200.41,111.48 202.64,111.22 204.43,109.43 C206.63,107.23 206.39,106.00 203.75,105.98 C202.51,105.98 200.87,105.57 200.10,105.08 C198.25,103.91 197.57,98.00 199.29,98.00 C201.53,98.00 204.75,100.88 205.40,103.48 C205.75,104.86 206.68,106.00 207.47,106.00 C209.20,106.00 216.15,112.95 215.49,114.02 C215.23,114.43 217.46,116.66 220.45,118.96 C223.43,121.26 226.98,124.60 228.34,126.38 C229.69,128.15 232.80,131.61 235.24,134.05 C237.68,136.50 242.75,142.10 246.51,146.50 C250.27,150.90 255.85,157.24 258.92,160.59 C270.13,172.83 279.70,183.50 288.50,193.54 C306.83,214.45 318.06,226.92 319.23,227.64 C319.91,228.06 317.92,225.61 312.75,219.71 C315.57,222.88 318.41,226.09 321.00,229.01 C328.98,238.02 339.95,250.36 345.39,256.44 C350.83,262.52 356.46,268.85 357.91,270.50 C367.27,281.20 451.35,375.93 461.10,386.75 C467.66,394.04 472.64,400.00 472.17,400.00 C470.93,400.00 460.32,388.58 441.55,367.04 C439.37,364.54 435.30,360.25 432.49,357.50 C429.68,354.75 426.67,351.38 425.78,350.00 C424.90,348.62 418.44,341.20 411.42,333.50 C404.40,325.80 397.95,318.64 397.08,317.59 C396.21,316.54 393.25,313.32 390.50,310.43 C387.75,307.55 383.70,303.10 381.50,300.56 C375.16,293.22 374.93,293.00 373.46,293.00 C372.70,293.00 371.56,293.96 370.93,295.14 C370.05,296.78 369.60,296.96 368.96,295.94 C368.49,295.17 368.70,293.53 369.47,292.07 C369.85,291.36 370.17,290.88 370.24,290.38 C370.46,288.98 368.87,287.31 361.60,279.68 C360.98,279.03 360.32,278.34 359.62,277.60 C356.53,274.35 354.00,271.37 354.00,270.97 C354.00,269.95 351.06,267.63 349.47,267.39 C347.24,267.07 341.97,260.62 342.40,258.75 C342.70,257.47 342.19,257.00 340.51,257.00 C337.70,257.00 336.75,259.17 337.60,263.70 C338.16,266.65 337.94,267.20 336.08,267.69 C334.16,268.19 333.95,268.84 334.21,273.62 C334.37,276.58 334.73,278.99 335.00,279.00 C335.27,279.00 335.50,282.82 335.50,287.50 C335.50,292.17 335.27,296.00 335.00,296.00 C334.73,296.00 334.50,299.37 334.50,303.50 C334.50,307.62 334.73,311.00 335.00,311.00 C336.12,311.00 334.46,334.94 333.25,336.15 C331.72,337.68 331.53,344.41 333.04,343.48 C333.71,343.06 333.85,343.74 333.43,345.42 C333.03,347.02 333.42,349.37 334.45,351.53 C336.34,355.51 337.44,368.61 335.97,369.52 C334.49,370.43 334.81,374.29 336.59,376.82 C338.08,378.95 338.01,379.30 335.52,382.57 C332.57,386.43 332.54,388.73 335.41,390.39 C338.38,392.12 342.71,397.10 345.12,401.58 C346.33,403.83 348.06,406.08 348.97,406.58 C355.41,410.16 357.93,412.39 358.50,415.01 C358.85,416.61 359.98,418.18 361.02,418.51 C362.05,418.83 363.19,420.03 363.55,421.16 C363.91,422.29 366.40,425.50 369.09,428.29 C371.78,431.08 374.25,434.22 374.59,435.28 C375.54,438.28 378.26,440.52 384.36,443.31 C387.69,444.83 390.00,446.53 390.00,447.44 ZM 233.33 0.00 L 359.38 0.00 L 357.16 3.00 C355.78,4.86 354.04,6.00 352.58,6.00 C350.91,6.00 350.04,6.71 349.61,8.44 C349.14,10.30 348.22,10.95 345.75,11.19 C342.60,11.49 342.49,11.65 342.24,16.50 C341.26,35.80 341.23,46.00 342.16,46.00 C342.73,46.00 344.50,46.93 346.09,48.06 C347.68,49.20 349.44,49.85 349.99,49.50 C350.55,49.16 351.00,49.82 351.00,50.98 C351.00,52.76 350.70,52.91 349.00,52.00 C347.40,51.15 347.00,51.24 347.00,52.46 C347.00,53.31 346.53,54.00 345.97,54.00 C345.40,54.00 343.94,55.69 342.72,57.75 C340.83,60.93 340.55,62.67 340.83,69.24 C341.12,75.87 340.87,77.35 339.08,79.62 C336.54,82.86 336.07,93.98 338.40,95.92 C339.48,96.81 339.92,96.78 340.28,95.79 C340.66,94.76 341.03,94.78 342.12,95.90 C342.99,96.78 343.04,97.03 342.25,96.59 C341.33,96.07 341.00,97.08 341.00,100.44 C341.00,102.95 341.35,105.00 341.79,105.00 C342.98,105.00 343.17,110.78 341.99,111.50 C341.43,111.85 341.21,112.53 341.51,113.02 C342.07,113.92 338.15,113.48 337.20,112.53 C336.90,112.24 335.84,112.74 334.83,113.65 C332.88,115.42 332.23,124.24 333.86,126.82 C334.59,127.95 339.50,131.00 340.61,131.00 C341.80,131.00 340.73,127.94 339.25,127.08 C337.68,126.16 337.72,126.06 339.69,126.03 C343.23,125.98 344.91,129.43 344.29,135.47 C343.94,138.83 344.15,140.98 344.87,141.42 C346.37,142.34 343.70,147.56 340.99,149.01 C338.40,150.39 338.43,153.00 341.03,153.00 C342.30,153.00 343.85,151.68 345.13,149.50 C346.27,147.57 347.60,145.94 348.10,145.88 C348.59,145.81 349.47,145.69 350.04,145.62 C351.38,145.46 353.01,142.82 352.39,141.82 C351.40,140.23 353.97,137.27 356.21,137.41 C359.06,137.59 359.97,136.38 359.98,132.33 C360.00,128.86 361.52,127.76 364.31,129.20 C366.49,130.33 369.00,128.61 369.00,126.01 C369.00,125.04 370.49,123.24 372.30,121.99 C374.12,120.75 376.60,118.22 377.81,116.37 C379.03,114.51 380.68,113.00 381.48,113.00 C382.29,113.00 383.63,111.68 384.46,110.07 C385.97,107.16 386.76,106.72 392.50,105.60 L 395.50 105.01 L 393.03 106.76 C391.67,107.72 379.52,119.75 366.03,133.50 C361.33,138.29 357.06,142.65 353.17,146.62 C316.77,183.75 314.23,186.35 312.05,186.07 C311.66,186.02 311.27,185.87 310.70,185.82 C307.31,185.52 305.06,183.24 276.54,151.09 C247.63,118.50 246.00,116.46 246.00,112.78 C246.00,109.14 246.88,107.99 259.75,94.69 C267.31,86.87 281.36,72.16 290.97,61.99 C330.34,20.33 343.72,6.75 348.24,3.84 C350.86,2.17 353.00,0.61 353.00,0.40 C353.00,0.18 299.15,0.00 233.33,0.00 ZM 204.98 353.43 C203.56,349.70 203.77,348.71 205.86,349.25 C208.44,349.93 211.00,348.28 211.00,345.95 C211.00,344.88 210.66,344.05 210.25,344.12 C205.97,344.79 204.45,341.37 207.52,337.97 C209.15,336.18 208.50,332.57 206.75,333.66 C206.04,334.10 205.92,331.33 206.38,324.90 C207.06,315.38 207.15,307.12 206.61,303.53 C206.45,302.45 207.26,300.79 208.41,299.86 L 210.50 298.15 L 207.25 294.96 C203.04,290.82 203.13,289.75 207.64,290.59 C210.16,291.07 211.08,290.94 210.62,290.19 C210.25,289.59 210.83,288.63 211.91,288.05 C214.66,286.58 214.83,286.66 215.18,289.75 C215.40,291.63 216.01,292.42 217.13,292.23 C218.02,292.09 219.56,293.21 220.54,294.73 C221.53,296.26 226.31,301.55 231.16,306.50 C239.30,314.80 239.98,315.81 239.97,319.50 C239.96,323.22 239.29,324.16 230.38,333.00 C225.11,338.23 219.91,343.74 218.83,345.25 C217.75,346.76 215.98,348.00 214.91,348.00 C213.82,348.00 212.53,349.00 212.01,350.25 C210.69,353.42 208.49,356.00 207.12,356.00 C206.47,356.00 205.51,354.85 204.98,353.43 ZM 464.92 261.63 C465.15,261.84 445.80,261.97 421.92,261.94 C384.07,261.88 378.08,261.67 375.26,260.26 C370.36,257.82 329.58,211.48 329.19,207.91 C328.92,205.48 330.52,203.30 339.85,193.28 C345.88,186.80 355.82,176.55 361.93,170.50 L 373.03 159.50 L 419.77 159.43 L 466.50 159.36 L 421.38 159.93 L 376.26 160.50 L 371.88 164.61 C361.23,174.60 358.00,178.07 358.00,179.51 C358.00,180.89 358.24,180.89 360.33,179.52 C362.53,178.08 364.00,178.33 364.00,180.14 C364.00,180.59 362.64,181.65 360.98,182.51 C358.27,183.91 357.90,183.91 357.38,182.53 C356.44,180.09 353.56,180.75 351.19,183.96 C349.98,185.59 349.00,187.14 349.00,187.40 C349.00,187.67 347.43,189.60 345.50,191.69 C342.09,195.41 341.00,199.26 343.00,200.50 C345.14,201.82 344.01,204.75 341.13,205.32 C338.96,205.76 338.30,206.43 338.38,208.12 C338.55,211.28 340.59,211.54 343.23,208.73 C345.47,206.34 348.00,206.10 348.00,208.29 C348.00,208.91 346.32,211.13 344.27,213.23 C341.20,216.38 340.74,217.35 341.66,218.78 C342.46,220.01 343.83,220.41 346.52,220.19 C349.80,219.92 350.17,220.10 349.49,221.69 C349.07,222.69 348.68,224.38 348.61,225.45 C348.52,227.14 349.11,227.37 353.00,227.21 C358.65,226.98 364.38,229.67 364.82,232.76 C365.27,235.92 362.27,235.69 360.80,232.45 C359.86,230.40 359.03,229.96 356.58,230.20 C352.00,230.65 352.40,232.92 358.04,238.50 C360.82,241.25 364.49,244.96 366.21,246.75 C367.92,248.54 369.81,250.02 370.41,250.04 C371.01,250.06 372.40,251.47 373.50,253.16 C377.13,258.76 380.97,259.20 438.50,260.63 C452.80,260.98 464.69,261.43 464.92,261.63 ZM 200.24 287.75 C197.82,285.17 196.79,280.11 198.29,278.21 C199.09,277.20 200.04,277.62 202.66,280.15 C206.29,283.68 207.18,288.33 204.42,289.39 C204.29,289.44 204.16,289.49 204.05,289.54 C203.40,289.79 203.02,289.94 202.67,289.89 C202.11,289.81 201.62,289.22 200.24,287.75 ZM 328.07 379.45 C331.32,382.38 332.44,382.91 333.11,381.86 C334.54,379.60 334.05,377.65 331.21,374.35 C327.61,370.16 324.60,369.62 324.20,373.09 C323.97,375.06 324.89,376.57 328.07,379.45 ZM 316.97 364.75 C317.00,367.28 319.15,367.73 320.93,365.58 C321.84,364.48 321.84,363.62 320.90,361.83 C320.23,360.55 319.40,358.87 319.05,358.10 C318.69,357.33 317.41,356.33 316.20,355.88 C314.45,355.23 314.00,355.43 314.00,356.84 C314.00,357.82 314.66,359.49 315.47,360.56 C316.28,361.63 316.95,363.51 316.97,364.75 ZM 314.07 239.58 C315.74,241.59 317.00,241.34 317.00,239.00 C317.00,237.53 317.67,237.00 319.50,237.00 C322.39,237.00 322.71,235.44 320.35,232.83 C317.99,230.23 317.00,230.56 317.00,233.93 C317.00,236.01 316.40,237.05 314.95,237.52 C313.31,238.04 313.13,238.45 314.07,239.58 ZM 323.04 166.08 C324.19,168.23 324.22,168.24 326.42,167.39 C329.01,166.40 328.22,164.29 325.00,163.65 C322.85,163.22 322.00,162.48 322.00,161.02 C322.00,158.89 320.55,158.30 319.50,160.01 C319.15,160.56 319.58,161.72 320.44,162.59 C321.31,163.45 322.48,165.02 323.04,166.08 ZM 326.84 246.00 C327.57,247.65 328.80,249.00 329.58,249.00 C332.14,249.00 331.06,246.57 326.49,242.09 C322.26,237.93 321.20,237.75 322.61,241.42 C322.94,242.29 323.73,243.00 324.36,243.00 C324.99,243.00 326.11,244.35 326.84,246.00 ZM 190.56 226.09 C189.76,224.80 191.00,222.00 192.37,222.00 C193.77,222.00 196.12,225.55 195.27,226.39 C194.35,227.32 191.19,227.12 190.56,226.09 ZM 334.31 204.36 C335.17,206.61 336.71,206.42 338.06,203.89 C339.54,201.13 337.98,199.56 335.53,201.35 C334.39,202.18 333.92,203.35 334.31,204.36 ZM 333.32 48.32 C332.92,48.99 333.34,48.91 334.31,48.13 C336.69,46.20 336.50,43.00 334.00,43.00 C331.92,43.00 331.24,45.41 333.02,46.51 C333.58,46.86 333.71,47.67 333.32,48.32 ZM 354.33 15.58 C353.75,17.10 349.00,17.58 349.00,16.12 C349.00,14.55 351.71,12.95 353.31,13.57 C354.17,13.90 354.63,14.80 354.33,15.58 ZM 199.75 234.21 C197.81,233.81 197.40,231.49 199.09,230.45 C199.69,230.08 200.63,230.23 201.18,230.78 C202.70,232.30 201.74,234.60 199.75,234.21 ZM 336.66 213.79 C336.97,215.01 337.86,216.00 338.62,216.00 C340.38,216.00 340.37,214.89 338.58,212.44 C336.86,210.09 335.87,210.78 336.66,213.79 ZM 187.25 87.34 C186.56,87.06 186.00,86.15 186.00,85.31 C186.00,84.33 186.57,84.00 187.58,84.39 C188.45,84.73 189.35,85.00 189.58,85.00 C189.81,85.00 190.00,85.68 190.00,86.50 C190.00,88.04 189.43,88.22 187.25,87.34 ZM 333.74 257.25 C334.35,258.47 335.74,258.11 336.33,256.57 C336.63,255.79 336.23,254.61 335.44,253.95 C334.65,253.29 333.94,253.04 333.88,253.38 C333.45,255.48 333.41,256.59 333.74,257.25 ZM 332.99 67.94 C334.79,69.12 336.32,67.84 335.84,65.56 C335.53,64.06 335.31,64.05 333.50,65.43 C331.78,66.75 331.71,67.10 332.99,67.94 ZM 334.60 25.26 C335.40,26.07 338.00,25.02 338.00,23.89 C338.00,23.40 337.10,23.00 336.00,23.00 C334.05,23.00 333.39,24.06 334.60,25.26 ZM 357.36 186.50 C357.05,187.32 356.17,188.00 355.42,188.00 C354.62,188.00 354.30,187.38 354.64,186.50 C354.95,185.68 355.83,185.00 356.58,185.00 C357.38,185.00 357.70,185.62 357.36,186.50 ZM 195.54 96.07 C194.54,94.45 196.72,93.96 198.01,95.51 C199.01,96.72 198.95,97.00 197.68,97.00 C196.82,97.00 195.86,96.58 195.54,96.07 ZM 211.00 188.94 C211.00,187.81 210.55,187.16 210.00,187.50 C209.45,187.84 209.00,188.77 209.00,189.56 C209.00,190.35 209.45,191.00 210.00,191.00 C210.55,191.00 211.00,190.07 211.00,188.94 ZM 348.60 392.27 C348.94,392.60 349.02,393.44 348.79,394.14 C348.45,395.15 348.21,395.15 347.58,394.13 C346.75,392.78 347.59,391.25 348.60,392.27 ZM 339.50 59.00 C339.16,59.55 339.36,60.00 339.94,60.00 C340.52,60.00 341.00,59.55 341.00,59.00 C341.00,58.45 340.80,58.00 340.56,58.00 C340.32,58.00 339.84,58.45 339.50,59.00 ZM 243.28 289.27 C241.13,286.78 239.15,284.49 237.50,282.57 C230.90,274.90 217.49,259.38 207.70,248.07 C217.49,259.38 230.90,274.90 237.50,282.56 C239.43,284.81 241.36,287.04 243.28,289.27 ZM 293.37 197.87 C290.30,194.40 287.41,191.07 286.09,189.50 C284.25,187.30 280.65,183.25 278.10,180.50 C280.65,183.25 284.25,187.30 286.10,189.50 C287.35,190.99 290.21,194.27 293.37,197.87 Z" fill="rgb(179,36,80)"/>
<path d="M 359.38 0.00 L 548.00 0.00 C543.60,0.00 540.00,0.28 540.00,0.62 C540.00,0.96 541.35,2.77 543.00,4.65 L 546.00 8.07 L 546.00 93.85 L 543.51 96.80 C542.60,97.89 541.92,98.79 541.10,99.53 C537.05,103.22 529.60,103.18 474.49,102.90 C471.93,102.88 469.26,102.87 466.49,102.86 L 399.20 102.52 L 394.36 105.99 C392.32,107.46 384.22,115.20 374.60,124.81 C384.32,115.01 391.96,107.51 393.03,106.76 L 395.50 105.01 L 392.50 105.60 C386.76,106.72 385.97,107.16 384.46,110.07 C383.63,111.68 382.29,113.00 381.48,113.00 C380.68,113.00 379.03,114.51 377.81,116.37 C376.60,118.22 374.12,120.75 372.30,121.99 C370.49,123.24 369.00,125.04 369.00,126.01 C369.00,128.61 366.49,130.33 364.31,129.20 C361.52,127.76 360.00,128.86 359.98,132.33 C359.97,136.38 359.06,137.59 356.21,137.41 C353.97,137.27 351.40,140.23 352.39,141.82 C353.01,142.82 351.38,145.46 350.04,145.62 C349.47,145.69 348.59,145.81 348.10,145.88 C347.60,145.94 346.27,147.57 345.13,149.50 C343.85,151.68 342.30,153.00 341.03,153.00 C338.43,153.00 338.40,150.39 340.99,149.01 C343.70,147.56 346.37,142.34 344.87,141.42 C344.15,140.98 343.94,138.83 344.29,135.47 C344.91,129.43 343.23,125.98 339.69,126.03 C337.72,126.06 337.68,126.16 339.25,127.08 C340.73,127.94 341.80,131.00 340.61,131.00 C339.50,131.00 334.59,127.95 333.86,126.82 C332.23,124.24 332.88,115.42 334.83,113.65 C335.84,112.74 336.90,112.24 337.20,112.53 C338.15,113.48 342.07,113.92 341.51,113.02 C341.21,112.53 341.43,111.85 341.99,111.50 C343.17,110.78 342.98,105.00 341.79,105.00 C341.35,105.00 341.00,102.95 341.00,100.44 C341.00,97.08 341.33,96.07 342.25,96.59 C343.04,97.03 342.99,96.78 342.12,95.90 C341.03,94.78 340.66,94.76 340.28,95.79 C339.92,96.78 339.48,96.81 338.40,95.92 C336.07,93.98 336.54,82.86 339.08,79.62 C340.87,77.35 341.12,75.87 340.83,69.24 C340.55,62.67 340.83,60.93 342.72,57.75 C343.94,55.69 345.40,54.00 345.97,54.00 C346.53,54.00 347.00,53.31 347.00,52.46 C347.00,51.24 347.40,51.15 349.00,52.00 C350.70,52.91 351.00,52.76 351.00,50.98 C351.00,49.82 350.55,49.16 349.99,49.50 C349.44,49.85 347.68,49.20 346.09,48.06 C344.50,46.93 342.73,46.00 342.16,46.00 C341.23,46.00 341.26,35.80 342.24,16.50 C342.49,11.65 342.60,11.49 345.75,11.19 C348.22,10.95 349.14,10.30 349.61,8.44 C350.04,6.71 350.91,6.00 352.58,6.00 C354.04,6.00 355.78,4.86 357.16,3.00 ZM 390.00 447.44 C390.00,446.53 387.69,444.83 384.36,443.31 C378.26,440.52 375.54,438.28 374.59,435.28 C374.25,434.22 371.78,431.08 369.09,428.29 C366.40,425.50 363.91,422.29 363.55,421.16 C363.19,420.03 362.05,418.83 361.02,418.51 C359.98,418.18 358.85,416.61 358.50,415.01 C357.93,412.39 355.41,410.16 348.97,406.58 C348.06,406.08 346.33,403.83 345.12,401.58 C342.71,397.10 338.38,392.12 335.41,390.39 C332.54,388.73 332.57,386.43 335.52,382.57 C338.01,379.30 338.08,378.95 336.59,376.82 C334.81,374.29 334.49,370.43 335.97,369.52 C337.44,368.61 336.34,355.51 334.45,351.53 C333.42,349.37 333.03,347.02 333.43,345.42 C333.85,343.74 333.71,343.06 333.04,343.48 C331.53,344.41 331.72,337.68 333.25,336.15 C334.46,334.94 336.12,311.00 335.00,311.00 C334.73,311.00 334.50,307.62 334.50,303.50 C334.50,299.37 334.73,296.00 335.00,296.00 C335.27,296.00 335.50,292.17 335.50,287.50 C335.50,282.82 335.27,279.00 335.00,279.00 C334.73,278.99 334.37,276.58 334.21,273.62 C333.95,268.84 334.16,268.19 336.08,267.69 C337.94,267.20 338.16,266.65 337.60,263.70 C336.75,259.17 337.70,257.00 340.51,257.00 C342.19,257.00 342.70,257.47 342.40,258.75 C341.97,260.62 347.24,267.07 349.47,267.39 C351.06,267.63 354.00,269.95 354.00,270.97 C354.00,271.37 356.53,274.35 359.62,277.60 C360.32,278.34 360.98,279.03 361.60,279.68 C368.87,287.31 370.46,288.98 370.24,290.38 C370.17,290.88 369.85,291.36 369.47,292.07 C368.70,293.53 368.49,295.17 368.96,295.94 C369.60,296.96 370.05,296.78 370.93,295.14 C371.56,293.96 372.70,293.00 373.46,293.00 C374.93,293.00 375.16,293.22 381.50,300.56 C383.70,303.10 387.75,307.55 390.50,310.43 C393.25,313.32 396.21,316.54 397.08,317.59 C397.95,318.64 404.40,325.80 411.42,333.50 C418.44,341.20 424.90,348.62 425.78,350.00 C426.67,351.38 429.68,354.75 432.49,357.50 C435.30,360.25 439.37,364.54 441.55,367.04 C460.32,388.58 470.93,400.00 472.17,400.00 C472.52,400.00 469.93,396.79 465.93,392.20 C467.12,393.50 468.31,394.78 469.44,396.00 C482.51,410.10 486.00,416.41 486.00,426.00 C486.00,434.17 483.04,440.28 477.13,444.32 C474.86,445.86 473.00,447.55 473.00,448.07 C473.00,448.63 489.46,449.00 514.50,449.00 L 473.00 449.00 C398.58,449.00 390.00,448.84 390.00,447.44 ZM 470.62 259.44 C469.15,260.53 468.08,261.05 460.32,261.32 C455.53,261.11 447.49,260.85 438.50,260.63 C380.97,259.20 377.13,258.76 373.50,253.16 C372.40,251.47 371.01,250.06 370.41,250.04 C369.81,250.02 367.92,248.54 366.21,246.75 C364.49,244.96 360.82,241.25 358.04,238.50 C352.40,232.92 352.00,230.65 356.58,230.20 C359.03,229.96 359.86,230.40 360.80,232.45 C362.27,235.69 365.27,235.92 364.82,232.76 C364.38,229.67 358.65,226.98 353.00,227.21 C349.11,227.37 348.52,227.14 348.61,225.45 C348.68,224.38 349.07,222.69 349.49,221.69 C350.17,220.10 349.80,219.92 346.52,220.19 C343.83,220.41 342.46,220.01 341.66,218.78 C340.74,217.35 341.20,216.38 344.27,213.23 C346.32,211.13 348.00,208.91 348.00,208.29 C348.00,206.10 345.47,206.34 343.23,208.73 C340.59,211.54 338.55,211.28 338.38,208.12 C338.30,206.43 338.96,205.76 341.13,205.32 C344.01,204.75 345.14,201.82 343.00,200.50 C341.00,199.26 342.09,195.41 345.50,191.69 C347.43,189.60 349.00,187.67 349.00,187.40 C349.00,187.14 349.98,185.59 351.19,183.96 C353.56,180.75 356.44,180.09 357.38,182.53 C357.90,183.91 358.27,183.91 360.98,182.51 C362.64,181.65 364.00,180.59 364.00,180.14 C364.00,178.33 362.53,178.08 360.33,179.52 C358.24,180.89 358.00,180.89 358.00,179.51 C358.00,178.07 361.23,174.60 371.88,164.61 L 376.26 160.50 L 421.38 159.93 L 450.55 159.56 C468.15,159.73 472.12,160.36 474.14,162.69 C474.74,163.39 475.17,164.24 475.74,165.28 C477.34,168.21 477.50,172.28 477.50,210.18 C477.50,250.71 477.44,251.93 475.44,254.62 C474.30,256.13 472.13,258.30 470.62,259.44 ZM 328.07 379.45 C324.89,376.57 323.97,375.06 324.20,373.09 C324.60,369.62 327.61,370.16 331.21,374.35 C334.05,377.65 334.54,379.60 333.11,381.86 C332.44,382.91 331.32,382.38 328.07,379.45 ZM 316.97 364.75 C316.95,363.51 316.28,361.63 315.47,360.56 C314.66,359.49 314.00,357.82 314.00,356.84 C314.00,355.43 314.45,355.23 316.20,355.88 C317.41,356.33 318.69,357.33 319.05,358.10 C319.40,358.87 320.23,360.55 320.90,361.83 C321.84,363.62 321.84,364.48 320.93,365.58 C319.15,367.73 317.00,367.28 316.97,364.75 ZM 314.07 239.58 C313.13,238.45 313.31,238.04 314.95,237.52 C316.40,237.05 317.00,236.01 317.00,233.93 C317.00,230.56 317.99,230.23 320.35,232.83 C322.71,235.44 322.39,237.00 319.50,237.00 C317.67,237.00 317.00,237.53 317.00,239.00 C317.00,241.34 315.74,241.59 314.07,239.58 ZM 323.04 166.08 C322.48,165.02 321.31,163.45 320.44,162.59 C319.58,161.72 319.15,160.56 319.50,160.01 C320.55,158.30 322.00,158.89 322.00,161.02 C322.00,162.48 322.85,163.22 325.00,163.65 C328.22,164.29 329.01,166.40 326.42,167.39 C324.22,168.24 324.19,168.23 323.04,166.08 ZM 326.84 246.00 C326.11,244.35 324.99,243.00 324.36,243.00 C323.73,243.00 322.94,242.29 322.61,241.42 C321.20,237.75 322.26,237.93 326.49,242.09 C331.06,246.57 332.14,249.00 329.58,249.00 C328.80,249.00 327.57,247.65 326.84,246.00 ZM 334.31 204.36 C333.92,203.35 334.39,202.18 335.53,201.35 C337.98,199.56 339.54,201.13 338.06,203.89 C336.71,206.42 335.17,206.61 334.31,204.36 ZM 333.32 48.32 C333.71,47.67 333.58,46.86 333.02,46.51 C331.24,45.41 331.92,43.00 334.00,43.00 C336.50,43.00 336.69,46.20 334.31,48.13 C333.34,48.91 332.92,48.99 333.32,48.32 ZM 354.33 15.58 C354.63,14.80 354.17,13.90 353.31,13.57 C351.71,12.95 349.00,14.55 349.00,16.12 C349.00,17.58 353.75,17.10 354.33,15.58 ZM 336.66 213.79 C335.87,210.78 336.86,210.09 338.58,212.44 C340.37,214.89 340.38,216.00 338.62,216.00 C337.86,216.00 336.97,215.01 336.66,213.79 ZM 333.74 257.25 C333.41,256.59 333.45,255.48 333.88,253.38 C333.94,253.04 334.65,253.29 335.44,253.95 C336.23,254.61 336.63,255.79 336.33,256.57 C335.74,258.11 334.35,258.47 333.74,257.25 ZM 332.99 67.94 C331.71,67.10 331.78,66.75 333.50,65.43 C335.31,64.05 335.53,64.06 335.84,65.56 C336.32,67.84 334.79,69.12 332.99,67.94 ZM 334.60 25.26 C333.39,24.06 334.05,23.00 336.00,23.00 C337.10,23.00 338.00,23.40 338.00,23.89 C338.00,25.02 335.40,26.07 334.60,25.26 ZM 357.36 186.50 C357.70,185.62 357.38,185.00 356.58,185.00 C355.83,185.00 354.95,185.68 354.64,186.50 C354.30,187.38 354.62,188.00 355.42,188.00 C356.17,188.00 357.05,187.32 357.36,186.50 ZM 348.60 392.27 C347.59,391.25 346.75,392.78 347.58,394.13 C348.21,395.15 348.45,395.15 348.79,394.14 C349.02,393.44 348.94,392.60 348.60,392.27 ZM 431.10 353.06 C403.46,321.96 366.17,279.92 358.48,271.16 C362.26,275.43 381.76,297.44 404.01,322.51 C413.72,333.45 423.13,344.07 431.10,353.06 ZM 339.50 59.00 C339.84,58.45 340.32,58.00 340.56,58.00 C340.80,58.00 341.00,58.45 341.00,59.00 C341.00,59.55 340.52,60.00 339.94,60.00 C339.36,60.00 339.16,59.55 339.50,59.00 ZM 344.95 155.00 C331.07,169.18 323.40,176.96 318.94,181.18 C323.41,176.93 331.09,169.14 344.95,155.00 ZM 375.26 260.26 C376.58,260.92 378.58,261.31 384.18,261.55 C378.51,261.34 376.60,260.95 375.26,260.28 C373.43,259.35 366.61,252.33 358.75,243.70 C366.61,252.33 373.43,259.35 375.26,260.26 Z" fill="rgb(197,29,60)"/>
<path d="M 0.50 336.00 C0.50,273.85 0.87,223.00 1.33,223.00 C1.78,223.00 2.00,229.30 1.83,237.00 C1.65,244.70 1.79,251.00 2.14,251.00 C3.56,251.00 4.00,247.27 4.00,235.25 C4.00,225.14 3.69,222.31 2.41,220.90 C0.71,219.02 0.61,207.68 0.89,56.25 L 1.00 0.00 L 8.51 -0.00 L 16.01 -0.00 L 13.01 4.15 C10.75,7.26 10.00,9.40 10.00,12.69 C10.00,18.49 12.38,22.85 20.78,32.50 C24.62,36.90 31.30,44.62 35.63,49.65 C58.87,76.66 74.67,94.87 84.98,106.56 C91.31,113.75 103.47,127.66 112.00,137.48 C120.53,147.30 132.68,161.26 139.00,168.51 C145.32,175.75 159.37,191.99 170.20,204.59 C181.04,217.19 197.92,236.76 207.70,248.07 C217.49,259.38 230.90,274.90 237.50,282.57 C244.10,290.23 255.80,303.70 263.50,312.51 C271.20,321.31 280.03,331.43 283.13,335.01 C286.23,338.58 292.98,346.01 298.13,351.52 C303.28,357.03 309.59,364.01 312.15,367.02 C348.17,409.43 375.82,440.23 381.32,444.05 C383.96,445.89 386.35,447.76 386.62,448.20 C386.90,448.64 326.72,449.00 252.90,449.00 L 118.69 449.00 L 124.71 444.95 C128.63,442.33 139.98,431.04 157.12,412.74 C171.63,397.24 188.65,379.15 194.93,372.53 C201.22,365.91 209.07,357.58 212.38,354.00 C215.69,350.42 223.70,342.06 230.20,335.41 C241.38,323.95 242.00,323.11 242.00,319.22 C242.00,316.96 241.57,314.85 241.04,314.53 C239.67,313.68 195.71,265.24 181.57,249.00 C176.35,243.01 172.60,240.63 169.55,241.40 C168.20,241.74 162.18,247.40 155.90,254.25 C149.72,260.99 134.72,277.04 122.58,289.92 C110.44,302.80 92.18,322.19 82.00,333.02 C71.82,343.85 52.70,364.14 39.49,378.10 C5.66,413.90 4.99,414.82 5.01,425.72 C5.02,432.75 8.68,439.86 15.13,445.38 L 19.36 449.00 L 9.93 449.00 L 0.50 449.00 L 0.50 336.00 ZM 473.00 448.07 C473.00,447.55 474.86,445.86 477.13,444.32 C483.04,440.28 486.00,434.17 486.00,426.00 C486.00,416.41 482.51,410.10 469.44,396.00 C463.57,389.67 456.23,381.58 453.13,378.01 C450.04,374.44 427.93,349.46 404.01,322.51 C380.09,295.55 359.35,272.15 357.90,270.50 C356.46,268.85 350.83,262.52 345.39,256.44 C339.95,250.36 328.98,238.02 321.00,229.01 C313.02,220.01 302.67,208.33 297.98,203.07 C293.29,197.81 287.95,191.70 286.10,189.50 C284.25,187.30 280.65,183.25 278.10,180.50 C275.55,177.75 268.91,170.32 263.34,164.00 C244.21,142.27 227.47,123.37 211.50,105.45 C202.69,95.58 192.57,84.12 189.00,80.00 C185.43,75.88 178.45,67.97 173.50,62.42 C168.55,56.88 157.98,44.96 150.00,35.94 C130.01,13.32 123.33,6.41 118.13,2.96 L 113.66 0.00 L 233.33 0.00 C299.15,0.00 353.00,0.18 353.00,0.40 C353.00,0.61 350.86,2.17 348.24,3.84 C343.72,6.75 330.34,20.33 290.97,61.99 C281.36,72.16 267.31,86.87 259.75,94.69 C246.88,107.99 246.00,109.14 246.00,112.78 C246.00,116.46 247.63,118.50 276.54,151.09 C305.06,183.24 307.31,185.52 310.70,185.82 C314.76,186.18 310.29,190.40 365.52,133.98 C378.72,120.50 391.70,107.90 394.36,105.99 L 399.20 102.52 L 466.49 102.86 C540.99,103.23 537.90,103.48 543.51,96.80 L 546.00 93.85 L 546.00 50.96 L 546.00 8.07 L 543.00 4.65 C541.35,2.77 540.00,0.96 540.00,0.62 C540.00,0.28 543.60,0.00 548.00,0.00 L 556.00 0.00 L 556.00 224.50 L 556.00 449.00 L 514.50 449.00 C489.46,449.00 473.00,448.63 473.00,448.07 ZM 470.62 259.44 C472.13,258.30 474.30,256.13 475.44,254.62 C477.44,251.93 477.50,250.71 477.50,210.18 C477.50,172.28 477.34,168.21 475.74,165.28 C472.51,159.36 473.80,159.50 421.27,159.50 L 373.03 159.50 L 361.93 170.50 C355.82,176.55 345.88,186.80 339.85,193.28 C330.52,203.30 328.92,205.48 329.19,207.91 C329.58,211.46 370.35,257.81 375.26,260.28 C378.13,261.72 383.63,261.88 423.18,261.70 C466.58,261.51 467.93,261.44 470.62,259.44 Z" fill="rgb(253,253,253)"/>
</g>
</svg>